<svg width="81" height="70" viewBox="0 0 81 70" fill="none" xmlns="http://www.w3.org/2000/svg">
<g filter="url(#filter0_d_21_129)">
<path d="M68.358 24.0625H60.1727L57.8977 18.375C55.5598 12.5275 49.9803 8.75 43.6816 8.75H26.3184C20.0211 8.75 14.4402 12.5275 12.101 18.375L9.82598 24.0625H1.642C0.574225 24.0625 -0.209173 25.066 0.0505923 26.101L0.870905 29.3822C1.05274 30.1123 1.70899 30.625 2.46231 30.625H5.20626C3.37012 32.2287 2.18751 34.5598 2.18751 37.1875V43.75C2.18751 45.9539 3.02969 47.9432 4.37501 49.4826V56.875C4.37501 59.2908 6.33419 61.25 8.75001 61.25H13.125C15.5408 61.25 17.5 59.2908 17.5 56.875V52.5H52.5V56.875C52.5 59.2908 54.4592 61.25 56.875 61.25H61.25C63.6658 61.25 65.625 59.2908 65.625 56.875V49.4826C66.9703 47.9445 67.8125 45.9553 67.8125 43.75V37.1875C67.8125 34.5598 66.6299 32.2287 64.7951 30.625H67.5391C68.2924 30.625 68.9486 30.1123 69.1305 29.3822L69.9508 26.101C70.2092 25.066 69.4258 24.0625 68.358 24.0625ZM20.2248 21.6248C21.2215 19.1338 23.6346 17.5 26.3184 17.5H43.6816C46.3654 17.5 48.7785 19.1338 49.7752 21.6248L52.5 28.4375H17.5L20.2248 21.6248ZM13.125 43.7227C10.5 43.7227 8.75001 41.9781 8.75001 39.3613C8.75001 36.7445 10.5 35 13.125 35C15.75 35 19.6875 38.9252 19.6875 41.542C19.6875 44.1588 15.75 43.7227 13.125 43.7227ZM56.875 43.7227C54.25 43.7227 50.3125 44.1588 50.3125 41.542C50.3125 38.9252 54.25 35 56.875 35C59.5 35 61.25 36.7445 61.25 39.3613C61.25 41.9781 59.5 43.7227 56.875 43.7227Z" fill="#A9A9A9"/>
</g>
<defs>
<filter id="filter0_d_21_129" x="0.00050354" y="8.75" width="80.9999" height="60.5" filterUnits="userSpaceOnUse" color-interpolation-filters="sRGB">
<feFlood flood-opacity="0" result="BackgroundImageFix"/>
<feColorMatrix in="SourceAlpha" type="matrix" values="0 0 0 0 0 0 0 0 0 0 0 0 0 0 0 0 0 0 127 0" result="hardAlpha"/>
<feOffset dx="7" dy="4"/>
<feGaussianBlur stdDeviation="2"/>
<feComposite in2="hardAlpha" operator="out"/>
<feColorMatrix type="matrix" values="0 0 0 0 0 0 0 0 0 0 0 0 0 0 0 0 0 0 0.25 0"/>
<feBlend mode="normal" in2="BackgroundImageFix" result="effect1_dropShadow_21_129"/>
<feBlend mode="normal" in="SourceGraphic" in2="effect1_dropShadow_21_129" result="shape"/>
</filter>
</defs>
</svg>
