<svg width="90" height="90" viewBox="0 0 90 90" fill="none" xmlns="http://www.w3.org/2000/svg">
<path d="M75.9375 5.625H14.0625C11.8247 5.625 9.67862 6.51395 8.09629 8.09629C6.51395 9.67863 5.625 11.8247 5.625 14.0625L5.625 75.9375C5.625 78.1753 6.51395 80.3214 8.09629 81.9037C9.67862 83.4861 11.8247 84.375 14.0625 84.375H38.1885V57.6018H27.1143V45H38.1885V35.3953C38.1885 24.4705 44.6924 18.4359 54.6539 18.4359C59.4246 18.4359 64.4133 19.2867 64.4133 19.2867V30.0094H58.9166C53.5008 30.0094 51.8115 33.3703 51.8115 36.8174V45H63.9018L61.9682 57.6018H51.8115V84.375H75.9375C78.1753 84.375 80.3214 83.4861 81.9037 81.9037C83.4861 80.3214 84.375 78.1753 84.375 75.9375V14.0625C84.375 11.8247 83.4861 9.67863 81.9037 8.09629C80.3214 6.51395 78.1753 5.625 75.9375 5.625Z" fill="#D5BFDF"/>
</svg>
