<svg width="90" height="90" viewBox="0 0 90 90" fill="none" xmlns="http://www.w3.org/2000/svg">
<path d="M45.0176 24.7852C33.8379 24.7852 24.8203 33.8027 24.8203 44.9824C24.8203 56.1621 33.8379 65.1797 45.0176 65.1797C56.1973 65.1797 65.2148 56.1621 65.2148 44.9824C65.2148 33.8027 56.1973 24.7852 45.0176 24.7852ZM45.0176 58.1133C37.793 58.1133 31.8867 52.2246 31.8867 44.9824C31.8867 37.7402 37.7754 31.8516 45.0176 31.8516C52.2598 31.8516 58.1484 37.7402 58.1484 44.9824C58.1484 52.2246 52.2422 58.1133 45.0176 58.1133ZM70.752 23.959C70.752 26.5781 68.6426 28.6699 66.041 28.6699C63.4219 28.6699 61.3301 26.5605 61.3301 23.959C61.3301 21.3574 63.4395 19.248 66.041 19.248C68.6426 19.248 70.752 21.3574 70.752 23.959ZM84.1289 28.7402C83.8301 22.4297 82.3887 16.8398 77.7656 12.2344C73.1602 7.62891 67.5703 6.1875 61.2598 5.87109C54.7559 5.50195 35.2617 5.50195 28.7578 5.87109C22.4648 6.16992 16.875 7.61133 12.252 12.2168C7.62891 16.8223 6.20508 22.4121 5.88867 28.7227C5.51953 35.2266 5.51953 54.7207 5.88867 61.2246C6.1875 67.5352 7.62891 73.125 12.252 77.7305C16.875 82.3359 22.4473 83.7773 28.7578 84.0937C35.2617 84.4629 54.7559 84.4629 61.2598 84.0937C67.5703 83.7949 73.1602 82.3535 77.7656 77.7305C82.3711 73.125 83.8125 67.5352 84.1289 61.2246C84.4981 54.7207 84.4981 35.2441 84.1289 28.7402ZM75.7266 68.2031C74.3555 71.6484 71.7012 74.3027 68.2383 75.6914C63.0527 77.748 50.748 77.2734 45.0176 77.2734C39.2871 77.2734 26.9648 77.7305 21.7969 75.6914C18.3516 74.3203 15.6973 71.666 14.3086 68.2031C12.252 63.0176 12.7266 50.7129 12.7266 44.9824C12.7266 39.252 12.2695 26.9297 14.3086 21.7617C15.6797 18.3164 18.334 15.6621 21.7969 14.2734C26.9824 12.2168 39.2871 12.6914 45.0176 12.6914C50.748 12.6914 63.0703 12.2344 68.2383 14.2734C71.6836 15.6445 74.3379 18.2988 75.7266 21.7617C77.7832 26.9473 77.3086 39.252 77.3086 44.9824C77.3086 50.7129 77.7832 63.0352 75.7266 68.2031Z" fill="#D5BFDF"/>
</svg>
