<svg width="90" height="90" viewBox="0 0 90 90" fill="none" xmlns="http://www.w3.org/2000/svg">
<path d="M78.75 5.625H11.2324C8.13867 5.625 5.625 8.17383 5.625 11.3027V78.6973C5.625 81.8262 8.13867 84.375 11.2324 84.375H78.75C81.8438 84.375 84.375 81.8262 84.375 78.6973V11.3027C84.375 8.17383 81.8438 5.625 78.75 5.625ZM29.4258 73.125H17.7539V35.543H29.4434V73.125H29.4258ZM23.5898 30.4102C19.8457 30.4102 16.8223 27.3691 16.8223 23.6426C16.8223 19.916 19.8457 16.875 23.5898 16.875C27.3164 16.875 30.3574 19.916 30.3574 23.6426C30.3574 27.3867 27.334 30.4102 23.5898 30.4102ZM73.1777 73.125H61.5059V54.8438C61.5059 50.4844 61.418 44.877 55.4414 44.877C49.3594 44.877 48.4277 49.6231 48.4277 54.5273V73.125H36.7559V35.543H47.9531V40.6758H48.1113C49.6758 37.7227 53.4902 34.6113 59.168 34.6113C70.9805 34.6113 73.1777 42.3984 73.1777 52.5234V73.125Z" fill="#D5BFDF"/>
</svg>
